<svg width="12" height="12" viewBox="0 0 12 12" fill="none" xmlns="http://www.w3.org/2000/svg">
<path fill-rule="evenodd" clip-rule="evenodd" d="M0 9.85563C0.066105 9.50827 0.29068 9.26692 0.53092 9.0274C2.49698 7.06739 4.45868 5.10302 6.42174 3.13996C6.55811 3.00352 6.58554 3.00255 6.75272 3.08939C7.04724 3.24246 7.33122 3.22907 7.59863 3.0225C7.72051 2.92825 7.76939 2.9317 7.87885 3.04116C8.09998 3.26222 8.32156 3.48283 8.5423 3.70422C8.63928 3.80146 8.6426 3.85834 8.5568 3.96819C8.33918 4.24639 8.32942 4.5383 8.49674 4.84237C8.57292 4.98069 8.56856 5.01677 8.45747 5.12779C6.43051 7.15475 4.40265 9.18092 2.37809 11.2103C2.19037 11.3985 1.97022 11.511 1.71795 11.5736C1.62 11.5736 1.52204 11.5736 1.42409 11.5736C0.727545 11.3207 0.25272 10.8461 0 10.1495C0 10.0515 0 9.95352 0 9.85563Z" fill="#B28271"/>
<path fill-rule="evenodd" clip-rule="evenodd" d="M11.5735 0.92677C10.6661 1.81181 9.75878 2.69685 8.86237 3.5713C8.59008 3.30025 8.27951 2.99104 7.9978 2.71063C8.87199 1.81604 9.7593 0.90805 10.6467 0C10.6919 0 10.7371 0 10.7823 0C11.046 0.263705 11.3097 0.52741 11.5735 0.79118C11.5735 0.836355 11.5735 0.881595 11.5735 0.92677Z" fill="#B28271"/>
</svg>
