<svg width="8" height="8" viewBox="0 0 8 8" fill="none" xmlns="http://www.w3.org/2000/svg">
<path fill-rule="evenodd" clip-rule="evenodd" d="M1.39771 0.994649C2.66366 -0.330291 5.2732 -0.331662 6.65574 0.991218C5.7693 1.79096 5.29487 2.78919 5.29322 3.98921C5.29185 5.18553 5.72554 6.20408 6.59649 7.02922C5.45562 8.21428 2.88956 8.44105 1.39825 6.99435C2.26385 6.18514 2.71592 5.1843 2.71221 3.99498C2.70878 2.81404 2.2596 1.81882 1.39771 0.994649Z" fill="#B28271"/>
<path fill-rule="evenodd" clip-rule="evenodd" d="M7.10125 1.53358C8.29862 2.7778 8.29766 5.2447 7.11167 6.53834C5.74257 5.62356 5.42629 2.86195 7.10125 1.53358Z" fill="#B28271"/>
<path fill-rule="evenodd" clip-rule="evenodd" d="M0.900592 6.50292C-0.307894 5.12033 -0.296648 2.86277 0.91321 1.49706C2.42577 2.77464 2.41425 5.2296 0.900592 6.50292Z" fill="#B28271"/>
</svg>
