<svg width="6" height="6" viewBox="0 0 6 6" fill="none" xmlns="http://www.w3.org/2000/svg">
<path fill-rule="evenodd" clip-rule="evenodd" d="M1.04834 0.745986C1.99781 -0.247718 3.95496 -0.248747 4.99186 0.743413C4.32703 1.34322 3.97121 2.09189 3.96998 2.99191C3.96895 3.88915 4.29422 4.65306 4.94743 5.27191C4.09177 6.16071 2.16723 6.33079 1.04875 5.24576C1.69795 4.63885 2.037 3.88822 2.03422 2.99624C2.03165 2.11053 1.69476 1.36412 1.04834 0.745986Z" fill="#B28271"/>
<path fill-rule="evenodd" clip-rule="evenodd" d="M5.32587 1.15018C6.22391 2.08335 6.22319 3.93352 5.33369 4.90375C4.30687 4.21767 4.06966 2.14646 5.32587 1.15018Z" fill="#B28271"/>
<path fill-rule="evenodd" clip-rule="evenodd" d="M0.675444 4.87719C-0.23092 3.84025 -0.222486 2.14708 0.684907 1.1228C1.81933 2.08098 1.81069 3.9222 0.675444 4.87719Z" fill="#B28271"/>
</svg>
