<svg width="88" height="113" viewBox="0 0 88 113" fill="none" xmlns="http://www.w3.org/2000/svg">
<path fill-rule="evenodd" clip-rule="evenodd" d="M46.8284 0C48.9036 0.3904 51.027 0.61488 53.0455 1.19987C62.007 3.79542 67.1707 10.0028 69.4612 18.8362C69.79 20.1044 69.9956 21.4043 70.2902 22.8476C71.2827 22.8476 72.33 22.8421 73.378 22.8488C74.9732 22.8598 75.5966 23.4569 75.6045 25.0118C75.6161 27.098 75.6173 29.1848 75.6039 31.271C75.5935 32.7607 74.9573 33.3737 73.4421 33.3908C72.5271 33.4018 71.6121 33.3975 70.6971 33.4036C70.6281 33.4042 70.558 33.4341 70.3347 33.4859C70.3347 33.8355 70.3347 34.2216 70.3347 34.6077C70.3347 38.1213 70.3597 41.6356 70.3109 45.1492C70.3024 45.7714 70.1212 46.4747 69.7918 46.9962C67.0285 51.3687 63.8089 55.3105 59.2095 57.9207C58.946 58.0702 58.7624 58.6094 58.7838 58.9516C58.8204 59.5226 59.0522 60.0807 59.2144 60.6926C59.3694 60.6614 59.5383 60.6791 59.6298 60.6029C61.0328 59.4299 62.312 59.6903 63.6503 60.7914C66.2618 62.9392 69.3325 64.1262 72.5588 65.0626C77.9847 66.6382 82.3975 69.6669 85.3322 74.6134C87.0103 77.4426 87.8911 80.5127 87.8997 83.8C87.9235 92.6218 87.8954 101.443 87.929 110.264C87.9326 111.257 87.5105 111.908 86.8121 112.482C86.3722 112.482 85.933 112.482 85.4938 112.482C84.6008 111.861 84.3391 111.011 84.3751 109.935C84.444 107.852 84.3952 105.764 84.3952 103.677C84.3952 103.109 84.3952 102.542 84.3952 101.996C79.625 101.996 75.0275 101.996 70.3347 101.996C70.3347 104.681 70.2926 107.309 70.3555 109.935C70.3811 111.01 70.1261 111.858 69.2361 112.482C68.7969 112.482 68.3577 112.482 67.9179 112.482C67.0255 111.861 66.79 111.009 66.7992 109.936C66.8443 104.629 66.8193 99.3214 66.8199 94.0138C66.8199 93.1354 66.7894 92.2552 66.8333 91.3792C66.8864 90.3392 67.6324 89.6352 68.5895 89.6419C69.5454 89.6499 70.2676 90.3575 70.3225 91.4061C70.3622 92.1722 70.3341 92.9426 70.3347 93.7106C70.3353 95.2674 70.3347 96.8241 70.3347 98.3637C75.1007 98.3637 79.6988 98.3637 84.3952 98.3637C84.3952 97.9501 84.3952 97.5939 84.3952 97.2364C84.3952 93.0274 84.3885 88.8178 84.3964 84.6088C84.4086 78.0959 81.4099 73.3031 75.8022 70.2397C73.5208 68.994 70.8996 68.3792 68.4681 67.3904C67.5659 67.0225 67.0468 67.2507 66.4021 67.9064C62.4218 71.9489 58.3964 75.9481 54.3802 79.9551C53.223 81.1099 52.5178 81.1373 51.2442 80.1211C50.4432 79.4818 49.6472 78.8376 48.8456 78.1996C47.8623 77.4169 46.876 76.638 45.7298 75.7285C45.7298 79.7758 45.7328 83.5749 45.7273 87.374C45.7255 88.8215 45.0453 89.6578 43.9229 89.6243C42.8329 89.5925 42.2192 88.7995 42.2168 87.3862C42.2113 83.8719 42.2168 80.3583 42.2119 76.8447C42.2113 76.5404 42.1698 76.236 42.1363 75.7876C40.2953 77.2559 38.5861 78.6241 36.872 79.9863C35.35 81.1953 34.7748 81.1648 33.4102 79.8002C29.3714 75.7644 25.3265 71.7336 21.3084 67.6771C20.8369 67.2013 20.4379 67.0512 19.7901 67.2854C18.1419 67.882 16.4571 68.3761 14.8076 68.9696C8.63262 71.1913 3.29329 76.8136 3.52875 84.9376C3.6477 89.0338 3.54949 93.1354 3.54949 97.2352C3.54949 97.6183 3.54949 98.0014 3.54949 98.3601C8.32335 98.3601 12.9209 98.3601 17.6094 98.3601C17.6094 97.905 17.6094 97.5103 17.6094 97.1163C17.6106 95.2131 17.5844 93.3093 17.6246 91.4067C17.6466 90.3575 18.3932 89.6517 19.3521 89.6419C20.3086 89.6334 21.0303 90.338 21.1163 91.378C21.1376 91.6324 21.1248 91.8898 21.1248 92.146C21.1248 98.0758 21.1028 104.006 21.1455 109.935C21.1535 111.008 20.9168 111.858 20.0268 112.482C19.5876 112.482 19.1478 112.482 18.7086 112.482C17.8162 111.861 17.5539 111.011 17.5905 109.935C17.6594 107.852 17.6106 105.764 17.6106 103.677C17.6106 103.109 17.6106 102.542 17.6106 101.996C12.8404 101.996 8.24283 101.996 3.55071 101.996C3.55071 104.681 3.50801 107.309 3.57145 109.935C3.59707 111.01 3.34209 111.858 2.45271 112.482C2.01351 112.482 1.57431 112.482 1.1345 112.482C0.241457 111.861 0.0114869 111.008 0.0163669 109.936C0.0523569 101.589 0.156057 93.2416 0.00355691 84.898C-0.162973 75.7858 5.53504 68.6525 13.5205 65.6927C14.5819 65.2987 15.6433 64.8589 16.7444 64.6295C19.6998 64.0152 22.1313 62.4067 24.4725 60.6541C25.7663 59.6848 26.9369 59.4787 28.2215 60.5529C28.3246 60.6395 28.4838 60.6584 28.6437 60.7194C28.7077 60.6066 28.7779 60.5272 28.8029 60.4351C29.3775 58.3422 29.3799 58.3367 27.5353 57.1552C23.3928 54.5005 20.4727 50.7276 17.9296 46.6211C17.6807 46.2197 17.6271 45.6463 17.624 45.1516C17.599 41.674 17.6106 38.1964 17.6106 34.7188C17.6106 34.3229 17.6106 33.9264 17.6106 33.3926C16.5272 33.3926 15.5152 33.4005 14.5039 33.3908C12.9862 33.3761 12.3512 32.7631 12.342 31.2735C12.3286 29.1873 12.3304 27.1005 12.3414 25.0137C12.3493 23.4551 12.9691 22.8598 14.5655 22.8488C15.586 22.8421 16.6059 22.8476 17.6057 22.8476C18.0242 21.0352 18.3408 19.2766 18.8385 17.5717C21.8153 7.36697 29.5812 1.06506 40.1684 0.19581C40.4874 0.16958 40.801 0.0671 41.1169 0.000609956C43.0214 -4.42413e-08 44.9246 0 46.8284 0ZM21.2566 23.6662C21.711 23.255 22.1081 22.8945 22.5071 22.5352C24.8013 20.4667 27.5011 19.3608 30.581 19.3492C39.5072 19.3157 48.4339 19.3175 57.36 19.3486C60.4417 19.3596 63.1386 20.4716 65.4383 22.5297C65.8384 22.8884 66.2337 23.2538 66.7803 23.7528C66.7095 23.1257 66.6802 22.7018 66.6107 22.2845C66.4655 21.4208 66.3453 20.5491 66.133 19.7012C64.461 13.029 60.8132 7.8934 54.2557 5.35092C47.6378 2.78526 40.8449 2.77916 34.1776 5.14901C26.613 7.83667 21.0937 15.8838 21.2566 23.6662ZM61.4977 29.9541C49.7588 29.9541 38.109 29.9541 26.4867 29.9541C26.4867 31.7267 26.4867 33.4231 26.4867 35.0939C38.1993 35.0939 49.8229 35.0939 61.4977 35.0939C61.4977 33.3688 61.4977 31.7005 61.4977 29.9541ZM55.2793 59.694C51.5784 60.9872 47.7995 61.51 43.9406 61.5142C40.0915 61.5203 36.3309 60.9433 32.6434 59.7098C32.4061 60.5724 32.1402 61.2989 32.0322 62.0486C31.9865 62.3652 32.1743 62.8916 32.4257 63.0459C36.0375 65.2639 39.67 67.4477 43.3264 69.5906C43.6497 69.7803 44.2688 69.798 44.5854 69.6126C48.2747 67.4544 51.9365 65.2499 55.5855 63.0246C55.8106 62.8867 56.0211 62.4433 55.9735 62.1926C55.8173 61.3776 55.5373 60.5846 55.2793 59.694ZM64.1951 26.3014C62.3108 24.0743 60.0648 22.8866 57.2765 22.8585C53.6543 22.8219 50.0303 22.8476 46.4075 22.8476C41.1737 22.8476 35.9405 22.8317 30.7067 22.8555C27.8824 22.8683 24.9715 24.386 23.9387 26.3008C37.3075 26.3014 50.6793 26.3014 64.1951 26.3014ZM38.7013 47.5013C38.7013 50.4049 38.683 53.1835 38.7282 55.9608C38.7331 56.2566 39.0442 56.6818 39.3248 56.8197C42.404 58.3367 45.5224 58.3514 48.6096 56.8581C48.9195 56.708 49.2074 56.1682 49.2177 55.801C49.2757 53.7178 49.2458 51.6322 49.2458 49.5479C49.2458 48.8683 49.2458 48.1882 49.2458 47.5019C45.6669 47.5013 42.2424 47.5013 38.7013 47.5013ZM40.898 72.2655C36.1125 69.3936 31.5174 66.6279 26.9058 63.8902C26.6892 63.7621 26.2653 63.781 26.0377 63.9085C25.3179 64.3141 24.6457 64.8046 24.0491 65.1992C27.8836 69.0349 31.6473 72.8004 35.4629 76.6178C37.1757 75.2459 38.9624 73.8155 40.898 72.2655ZM63.9718 65.2523C63.4753 64.9174 62.9488 64.6448 62.5255 64.2598C61.799 63.5986 61.1939 63.7352 60.4039 64.2202C56.2358 66.7804 52.0286 69.2777 47.8379 71.8019C47.6098 71.9391 47.4091 72.1197 47.1309 72.3307C49.0207 73.8417 50.8098 75.2709 52.5557 76.666C56.3706 72.8517 60.116 69.1075 63.9718 65.2523ZM49.1952 38.7417C45.659 38.7417 42.2101 38.7417 38.7874 38.7417C38.7874 40.5138 38.7874 42.2083 38.7874 43.881C42.2985 43.881 45.7218 43.881 49.1952 43.881C49.1952 42.1571 49.1952 40.49 49.1952 38.7417ZM26.2445 38.6923C26.5709 40.5235 26.8734 42.2211 27.1662 43.8627C29.9649 43.8627 32.5446 43.8627 35.0962 43.8627C35.0962 42.09 35.0962 40.3936 35.0962 38.6923C32.1939 38.6923 29.3799 38.6923 26.2445 38.6923ZM52.7991 43.9371C55.3177 43.9371 57.7205 43.9475 60.1233 43.92C60.349 43.9176 60.7339 43.7083 60.7711 43.5363C61.1115 41.9619 61.3909 40.3747 61.6977 38.7362C58.5507 38.7362 55.6911 38.7362 52.7997 38.7362C52.7991 40.4723 52.7991 42.137 52.7991 43.9371ZM59.0528 47.5355C56.8531 47.5355 54.8304 47.5355 52.8594 47.5355C52.8594 49.8425 52.8594 52.0666 52.8594 54.4096C55.4245 52.4838 57.4686 50.3055 59.0528 47.5355ZM35.1408 47.5373C33.0405 47.5373 31.0629 47.5373 28.959 47.5373C30.5987 50.2567 32.5904 52.4423 35.1408 54.3211C35.1408 51.9342 35.1408 49.7559 35.1408 47.5373ZM23.4654 43.8986C23.2202 42.0991 22.9914 40.4174 22.7639 38.7435C22.2259 38.7435 21.7043 38.7435 21.2059 38.7435C21.2059 40.5125 21.2059 42.2035 21.2059 43.8986C22.0081 43.8986 22.7291 43.8986 23.4654 43.8986ZM64.4562 43.8596C65.2193 43.8596 65.9915 43.8596 66.7388 43.8596C66.7388 42.087 66.7388 40.3936 66.7388 38.7191C66.1575 38.7191 65.6585 38.7191 65.1827 38.7191C64.9374 40.4576 64.6995 42.1412 64.4562 43.8596ZM21.1974 29.9278C21.1974 31.7041 21.1974 33.3987 21.1974 35.064C21.7964 35.064 22.318 35.064 22.8285 35.064C22.8285 33.3103 22.8285 31.6437 22.8285 29.9278C22.2765 29.9278 21.7775 29.9278 21.1974 29.9278ZM65.1259 29.8967C65.1259 31.6822 65.1259 33.3774 65.1259 35.0744C65.7146 35.0744 66.2367 35.0744 66.7394 35.0744C66.7394 33.3023 66.7394 31.6072 66.7394 29.8967C66.1849 29.8967 65.7115 29.8967 65.1259 29.8967ZM65.1747 47.5623C63.1855 47.3067 63.2307 47.3342 62.326 48.8342C61.5544 50.1139 60.6668 51.3248 59.8208 52.5582C59.5938 52.8882 59.3267 53.1902 59.0784 53.5049C61.5794 52.022 63.4594 49.9724 65.1747 47.5623ZM28.7498 53.5592C27.6762 51.9561 26.552 50.3836 25.5436 48.7408C24.6665 47.3128 24.7244 47.2774 22.8047 47.5818C24.456 49.9584 26.3525 52.0123 28.7498 53.5592ZM15.9349 26.4014C15.9349 27.6257 15.9349 28.7353 15.9349 29.8223C16.5163 29.8223 17.014 29.8223 17.5465 29.8223C17.5465 28.6578 17.5465 27.5482 17.5465 26.4014C16.9841 26.4014 16.4858 26.4014 15.9349 26.4014ZM70.422 26.4008C70.422 27.6312 70.422 28.7389 70.422 29.8192C71.0069 29.8192 71.5041 29.8192 72.0263 29.8192C72.0263 28.6505 72.0263 27.5421 72.0263 26.4008C71.4614 26.4008 70.963 26.4008 70.422 26.4008Z" fill="#422020"/>
<path fill-rule="evenodd" clip-rule="evenodd" d="M63.3014 94.8581C63.3234 97.7745 60.9377 100.18 58.025 100.175C55.1567 100.172 52.7857 97.8184 52.7643 94.9526C52.7424 92.0338 55.1238 89.634 58.0402 89.6377C60.9115 89.6407 63.2789 91.9892 63.3014 94.8581ZM58.014 93.158C57.0618 93.169 56.2736 93.9729 56.2846 94.9245C56.295 95.8761 57.1008 96.6661 58.0506 96.6551C59.001 96.6447 59.7915 95.8371 59.7811 94.8885C59.7702 93.9363 58.9643 93.1458 58.014 93.158Z" fill="#422020"/>
</svg>
