<svg width="19" height="16" viewBox="0 0 19 16" fill="none" xmlns="http://www.w3.org/2000/svg">
<path d="M17.8599 1.52588V6.19219H13.1936" stroke="black" stroke-width="1.5" stroke-linecap="round" stroke-linejoin="round"/>
<path d="M0.75 13.9694V9.30304H5.41632" stroke="black" stroke-width="1.5" stroke-linecap="round" stroke-linejoin="round"/>
<path d="M2.70208 5.41448C3.09651 4.29984 3.76688 3.30328 4.65063 2.5178C5.53437 1.73231 6.6027 1.1835 7.75592 0.92257C8.90914 0.66164 10.1097 0.697096 11.2455 1.02563C12.3813 1.35416 13.4154 1.96507 14.2512 2.80134L17.8598 6.1922M0.75 9.30307L4.35862 12.6939C5.19447 13.5302 6.22855 14.1411 7.36435 14.4696C8.50016 14.7982 9.70069 14.8336 10.8539 14.5727C12.0071 14.3118 13.0755 13.763 13.9592 12.9775C14.8429 12.192 15.5133 11.1954 15.9077 10.0808" stroke="black" stroke-width="1.5" stroke-linecap="round" stroke-linejoin="round"/>
</svg>
