<svg width="186" height="150" viewBox="0 0 186 150" fill="none" xmlns="http://www.w3.org/2000/svg">
<path d="M175.12 51.4C172.853 51.4 171.12 50.9867 169.92 50.16C168.72 49.3333 167.893 48.1733 167.44 46.68C167.013 45.1867 166.8 43.44 166.8 41.44H172.76C172.76 42.6133 172.827 43.6 172.96 44.4C173.12 45.2 173.387 45.8 173.76 46.2C174.16 46.6 174.747 46.7867 175.52 46.76C176.293 46.7333 176.853 46.44 177.2 45.88C177.547 45.32 177.76 44.52 177.84 43.48C177.92 42.44 177.96 41.2133 177.96 39.8C177.96 38.6533 177.893 37.64 177.76 36.76C177.627 35.88 177.36 35.1867 176.96 34.68C176.587 34.1733 176 33.92 175.2 33.92C174.48 33.92 173.88 34.1733 173.4 34.68C172.947 35.1867 172.613 35.9067 172.4 36.84H167.12L167.56 18.44H182.44V23.76H172.64L172.28 30.92C172.6 30.52 173.133 30.1733 173.88 29.88C174.653 29.5867 175.48 29.4133 176.36 29.36C178.04 29.2 179.427 29.52 180.52 30.32C181.64 31.12 182.467 32.3067 183 33.88C183.533 35.4267 183.8 37.32 183.8 39.56C183.8 41.2667 183.693 42.8533 183.48 44.32C183.267 45.76 182.853 47.0133 182.24 48.08C181.627 49.12 180.747 49.9333 179.6 50.52C178.453 51.1067 176.96 51.4 175.12 51.4Z" fill="white"/>
<path d="M146.446 50.84V46.48L154.326 34.36C154.912 33.4533 155.459 32.5867 155.966 31.76C156.499 30.9333 156.926 30.0933 157.246 29.24C157.592 28.36 157.766 27.4267 157.766 26.44C157.766 25.4 157.566 24.6133 157.166 24.08C156.766 23.52 156.192 23.24 155.446 23.24C154.646 23.24 154.032 23.4667 153.606 23.92C153.179 24.3467 152.886 24.92 152.726 25.64C152.566 26.36 152.486 27.1467 152.486 28V29.52H146.446V27.92C146.446 26 146.739 24.2933 147.326 22.8C147.939 21.3067 148.886 20.1467 150.166 19.32C151.472 18.4667 153.179 18.04 155.286 18.04C158.139 18.04 160.286 18.7867 161.726 20.28C163.166 21.7733 163.886 23.8667 163.886 26.56C163.886 27.8667 163.686 29.08 163.286 30.2C162.886 31.2933 162.352 32.36 161.686 33.4C161.046 34.4133 160.352 35.4667 159.606 36.56L153.366 45.96H163.006V50.84H146.446Z" fill="white"/>
<path d="M133.967 51.4C132.02 51.4 130.407 51 129.127 50.2C127.847 49.4 126.887 48.3067 126.247 46.92C125.607 45.5067 125.287 43.88 125.287 42.04V27.52C125.287 25.6267 125.594 23.9733 126.207 22.56C126.82 21.12 127.767 20 129.047 19.2C130.327 18.4 131.967 18 133.967 18C135.94 18 137.554 18.4 138.807 19.2C140.087 20 141.034 21.12 141.647 22.56C142.26 23.9733 142.567 25.6267 142.567 27.52V42.04C142.567 43.88 142.247 45.5067 141.607 46.92C140.967 48.3067 140.007 49.4 138.727 50.2C137.447 51 135.86 51.4 133.967 51.4ZM133.967 45.96C134.687 45.96 135.207 45.7333 135.527 45.28C135.847 44.8267 136.06 44.2933 136.167 43.68C136.274 43.04 136.327 42.4533 136.327 41.92V27.64C136.327 27.0533 136.274 26.44 136.167 25.8C136.087 25.16 135.887 24.6133 135.567 24.16C135.247 23.68 134.714 23.44 133.967 23.44C133.22 23.44 132.674 23.68 132.327 24.16C132.007 24.6133 131.794 25.16 131.687 25.8C131.607 26.44 131.567 27.0533 131.567 27.64V41.92C131.567 42.4533 131.62 43.04 131.727 43.68C131.834 44.2933 132.06 44.8267 132.407 45.28C132.754 45.7333 133.274 45.96 133.967 45.96Z" fill="white"/>
<path d="M104.492 50.84V46.48L112.372 34.36C112.959 33.4533 113.506 32.5867 114.012 31.76C114.546 30.9333 114.972 30.0933 115.292 29.24C115.639 28.36 115.812 27.4267 115.812 26.44C115.812 25.4 115.612 24.6133 115.212 24.08C114.812 23.52 114.239 23.24 113.492 23.24C112.692 23.24 112.079 23.4667 111.652 23.92C111.226 24.3467 110.932 24.92 110.772 25.64C110.612 26.36 110.532 27.1467 110.532 28V29.52H104.492V27.92C104.492 26 104.786 24.2933 105.372 22.8C105.986 21.3067 106.932 20.1467 108.212 19.32C109.519 18.4667 111.226 18.04 113.332 18.04C116.186 18.04 118.332 18.7867 119.772 20.28C121.212 21.7733 121.932 23.8667 121.932 26.56C121.932 27.8667 121.732 29.08 121.332 30.2C120.932 31.2933 120.399 32.36 119.732 33.4C119.092 34.4133 118.399 35.4667 117.652 36.56L111.412 45.96H121.052V50.84H104.492Z" fill="white"/>
<path d="M66.8123 50.84V0.619995H77.0423V43.896H88.8223V50.84H66.8123Z" fill="white"/>
<path d="M46.4928 51.522C42.7728 51.522 39.8175 50.8193 37.6268 49.414C35.4775 48.0087 33.9688 46.066 33.1008 43.586C32.2328 41.0647 31.7988 38.1507 31.7988 34.844V16.802C31.7988 13.33 32.2328 10.354 33.1008 7.874C33.9688 5.35267 35.4775 3.41 37.6268 2.046C39.8175 0.682 42.7728 0 46.4928 0C50.0888 0 52.8995 0.599336 54.9248 1.798C56.9915 2.99667 58.4382 4.69133 59.2648 6.882C60.1328 9.07267 60.5668 11.6147 60.5668 14.508V18.724H50.6468V14.012C50.6468 12.8547 50.5848 11.78 50.4608 10.788C50.3368 9.75467 49.9855 8.928 49.4068 8.308C48.8695 7.64667 47.9188 7.316 46.5548 7.316C45.1908 7.316 44.1988 7.64667 43.5788 8.308C42.9588 8.96934 42.5662 9.83734 42.4008 10.912C42.2355 11.9453 42.1528 13.1027 42.1528 14.384V37.2C42.1528 38.6053 42.2562 39.8453 42.4628 40.92C42.7108 41.9533 43.1448 42.7593 43.7648 43.338C44.4262 43.8753 45.3562 44.144 46.5548 44.144C47.8775 44.144 48.8075 43.834 49.3448 43.214C49.9235 42.5527 50.2748 41.6847 50.3988 40.61C50.5642 39.5353 50.6468 38.3987 50.6468 37.2V32.302H60.5668V36.456C60.5668 39.3907 60.1535 41.9947 59.3268 44.268C58.5002 46.5 57.0742 48.2773 55.0488 49.6C53.0235 50.8813 50.1715 51.522 46.4928 51.522Z" fill="white"/>
<path d="M14.26 51.522C11.16 51.522 8.57667 50.964 6.51 49.848C4.44333 48.6907 2.87267 46.9753 1.798 44.702C0.764667 42.3873 0.165333 39.4527 0 35.898L8.804 34.41C8.88667 36.4767 9.09333 38.2127 9.424 39.618C9.796 40.982 10.3333 42.0153 11.036 42.718C11.78 43.3793 12.6893 43.71 13.764 43.71C15.0867 43.71 15.9753 43.2967 16.43 42.47C16.926 41.6433 17.174 40.6927 17.174 39.618C17.174 37.51 16.6573 35.7533 15.624 34.348C14.632 32.9013 13.3093 31.4547 11.656 30.008L6.448 25.482C4.588 23.9113 3.05867 22.134 1.86 20.15C0.702667 18.166 0.124 15.7273 0.124 12.834C0.124 8.70067 1.32267 5.53867 3.72 3.348C6.15867 1.116 9.486 0 13.702 0C16.2233 0 18.29 0.413335 19.902 1.24C21.514 2.06667 22.754 3.18267 23.622 4.588C24.5313 5.952 25.1513 7.46067 25.482 9.114C25.854 10.726 26.0813 12.338 26.164 13.95L17.422 15.252C17.3393 13.7227 17.1947 12.3793 16.988 11.222C16.8227 10.0647 16.4507 9.15533 15.872 8.494C15.3347 7.83267 14.508 7.502 13.392 7.502C12.1933 7.502 11.3047 7.95667 10.726 8.866C10.1473 9.734 9.858 10.7053 9.858 11.78C9.858 13.5573 10.2507 15.0247 11.036 16.182C11.8627 17.298 12.9787 18.476 14.384 19.716L19.468 24.18C21.576 25.9987 23.374 28.086 24.862 30.442C26.3913 32.7567 27.156 35.6293 27.156 39.06C27.156 41.416 26.6187 43.5447 25.544 45.446C24.4693 47.3473 22.9607 48.8353 21.018 49.91C19.1167 50.9847 16.864 51.522 14.26 51.522Z" fill="white"/>
<rect x="0.458008" y="59.84" width="185" height="46" fill="#E6E43E"/>
<path d="M159.37 99.84V67.44H163.97L171.17 84.32V67.44H176.61V99.84H172.21L165.01 81.92V99.84H159.37Z" fill="#12323E"/>
<path d="M140.563 100.28C138.19 100.28 136.31 99.8533 134.923 99C133.536 98.1467 132.536 96.9333 131.923 95.36C131.336 93.76 131.043 91.8533 131.043 89.64V77.56C131.043 75.3467 131.336 73.4533 131.923 71.88C132.536 70.3067 133.536 69.1067 134.923 68.28C136.31 67.4533 138.19 67.04 140.563 67.04C142.963 67.04 144.856 67.4667 146.243 68.32C147.656 69.1467 148.656 70.3467 149.243 71.92C149.856 73.4667 150.163 75.3467 150.163 77.56V89.64C150.163 91.8533 149.856 93.76 149.243 95.36C148.656 96.9333 147.656 98.1467 146.243 99C144.856 99.8533 142.963 100.28 140.563 100.28ZM140.563 95.52C141.416 95.52 142.043 95.3333 142.443 94.96C142.843 94.56 143.11 94.04 143.243 93.4C143.376 92.7333 143.443 92.0267 143.443 91.28V75.96C143.443 75.2133 143.376 74.52 143.243 73.88C143.11 73.24 142.843 72.7333 142.443 72.36C142.043 71.96 141.416 71.76 140.563 71.76C139.763 71.76 139.163 71.96 138.763 72.36C138.363 72.7333 138.096 73.24 137.963 73.88C137.83 74.52 137.763 75.2133 137.763 75.96V91.28C137.763 92.0267 137.816 92.7333 137.923 93.4C138.056 94.04 138.323 94.56 138.723 94.96C139.123 95.3333 139.736 95.52 140.563 95.52Z" fill="#12323E"/>
<path d="M115.201 99.84V67.44H121.761V99.84H115.201Z" fill="#12323E"/>
<path d="M95.8223 99.84V72.36H90.8223V67.44H107.382V72.36H102.462V99.84H95.8223Z" fill="#12323E"/>
<path d="M74.8731 100.28C72.4731 100.28 70.5664 99.8267 69.1531 98.92C67.7664 98.0133 66.7931 96.76 66.2331 95.16C65.6731 93.5333 65.3931 91.6533 65.3931 89.52V77.88C65.3931 75.64 65.6731 73.72 66.2331 72.12C66.7931 70.4933 67.7664 69.24 69.1531 68.36C70.5664 67.48 72.4731 67.04 74.8731 67.04C77.1931 67.04 79.0064 67.4267 80.3131 68.2C81.6464 68.9733 82.5797 70.0667 83.1131 71.48C83.6731 72.8933 83.9531 74.5333 83.9531 76.4V79.12H77.5531V76.08C77.5531 75.3333 77.5131 74.64 77.4331 74C77.3531 73.3333 77.1264 72.8 76.7531 72.4C76.4064 71.9733 75.7931 71.76 74.9131 71.76C74.0331 71.76 73.3931 71.9733 72.9931 72.4C72.5931 72.8267 72.3397 73.3867 72.2331 74.08C72.1264 74.7467 72.0731 75.4933 72.0731 76.32V91.04C72.0731 91.9467 72.1397 92.7467 72.2731 93.44C72.4331 94.1067 72.7131 94.6267 73.1131 95C73.5397 95.3467 74.1397 95.52 74.9131 95.52C75.7664 95.52 76.3664 95.32 76.7131 94.92C77.0864 94.4933 77.3131 93.9333 77.3931 93.24C77.4997 92.5467 77.5531 91.8133 77.5531 91.04V87.88H83.9531V90.56C83.9531 92.4533 83.6864 94.1333 83.1531 95.6C82.6197 97.04 81.6997 98.1867 80.3931 99.04C79.0864 99.8667 77.2464 100.28 74.8731 100.28Z" fill="#12323E"/>
<path d="M47.068 100.28C44.6146 100.28 42.708 99.8667 41.348 99.04C39.988 98.1867 39.028 96.9733 38.468 95.4C37.9346 93.8 37.668 91.8667 37.668 89.6V67.44H44.188V90.52C44.188 91.32 44.2413 92.1067 44.348 92.88C44.4813 93.6533 44.748 94.28 45.148 94.76C45.5746 95.24 46.2146 95.48 47.068 95.48C47.948 95.48 48.588 95.24 48.988 94.76C49.4146 94.28 49.6813 93.6533 49.788 92.88C49.8946 92.1067 49.948 91.32 49.948 90.52V67.44H56.468V89.6C56.468 91.8667 56.188 93.8 55.628 95.4C55.0946 96.9733 54.148 98.1867 52.788 99.04C51.428 99.8667 49.5213 100.28 47.068 100.28Z" fill="#12323E"/>
<path d="M10.2981 99.84L16.5781 67.44H23.8981L30.1381 99.84H24.0181L22.8581 92.72H17.7381L16.4981 99.84H10.2981ZM18.3381 88.68H22.2181L20.2581 75.6L18.3381 88.68Z" fill="#12323E"/>
<rect x="48.458" y="109.84" width="87" height="40" fill="#A81E1E"/>
<path d="M115.438 144.84V115.68H128.146V119.784H121.378V127.524H126.598V131.664H121.378V140.808H128.218V144.84H115.438Z" fill="white"/>
<path d="M96.4495 144.84L90.9055 115.68H96.0535L99.5095 135.84L102.75 115.68H108.114L102.57 144.84H96.4495Z" fill="white"/>
<path d="M77.6201 144.84V115.68H83.5241V144.84H77.6201Z" fill="white"/>
<path d="M57.6541 144.84V115.68H63.5941V140.808H70.4341V144.84H57.6541Z" fill="white"/>
</svg>
