<svg width="168" height="37" viewBox="0 0 168 37" fill="none" xmlns="http://www.w3.org/2000/svg">
<path d="M15.4992 29.0865L27.1272 25.9208L23.9899 14.1876L31.3731 18.4714L33.7161 27.234C35.1452 24.6481 35.9626 21.671 35.9626 18.5C35.9626 14.9472 34.9364 11.6388 33.1728 8.85067L22.1157 11.861L25.2534 23.5943L17.8709 19.3108L14.7328 7.57683L26.3616 4.41156L32.6391 8.05416C29.4092 3.50413 24.13 0.536369 18.1599 0.536369C8.32731 0.536369 0.357178 8.57909 0.357178 18.5C0.357178 28.4209 8.32766 36.4636 18.1599 36.4636C23.0572 36.4636 27.4911 34.4681 30.71 31.2395L22.8828 33.3703L15.4992 29.0865Z" fill="white"/>
<path d="M54.0466 15.7741V16.4901H51.3901V15.7741C51.3901 15.6786 51.3426 15.631 51.2483 15.631H44.9016C44.8066 15.631 44.7597 15.6789 44.7597 15.7741V17.4108C44.7597 17.4927 44.8069 17.5335 44.9016 17.5335H51.2483C52.0192 17.5335 52.6781 17.8098 53.2256 18.3622C53.7728 18.9147 54.0466 19.5795 54.0466 20.3571V21.9937C54.0466 22.7716 53.7728 23.4365 53.2256 23.989C52.6781 24.5414 52.0192 24.8173 51.2483 24.8173H44.9016C44.131 24.8173 43.4721 24.5414 42.9246 23.989C42.377 23.4365 42.1033 22.7716 42.1033 21.9937V21.2778H44.7597V21.9937C44.7597 22.0896 44.8069 22.1369 44.9016 22.1369H51.2483C51.3429 22.1369 51.3901 22.0893 51.3901 21.9937V20.3571C51.3901 20.2751 51.3426 20.2343 51.2483 20.2343H44.9016C44.131 20.2343 43.4721 19.9581 42.9246 19.4056C42.377 18.8535 42.1033 18.1883 42.1033 17.4108V15.7741C42.1033 14.9966 42.377 14.3314 42.9246 13.7789C43.4721 13.2264 44.131 12.9502 44.9016 12.9502H51.2483C52.0192 12.9502 52.6781 13.2264 53.2256 13.7789C53.7728 14.3318 54.0466 14.9966 54.0466 15.7741Z" fill="white"/>
<path d="M58.873 12.9506H65.2201C65.9906 12.9506 66.6495 13.2268 67.1971 13.7793C67.7446 14.3318 68.018 14.9966 68.018 15.7745V21.9945C68.018 22.7724 67.7446 23.4372 67.1971 23.9897C66.6495 24.5421 65.9906 24.818 65.2201 24.818H58.873C58.1024 24.818 57.4435 24.5421 56.896 23.9897C56.3485 23.4372 56.0747 22.7724 56.0747 21.9945V15.7741C56.0747 14.9966 56.3485 14.3314 56.896 13.7789C57.4435 13.2264 58.1024 12.9506 58.873 12.9506ZM58.873 22.1376H65.2201C65.3144 22.1376 65.3615 22.09 65.3615 21.9945V15.7741C65.3615 15.6786 65.314 15.631 65.2201 15.631H58.873C58.778 15.631 58.7312 15.6789 58.7312 15.7741V21.9941C58.7308 22.09 58.778 22.1376 58.873 22.1376Z" fill="white"/>
<path d="M70.1672 12.9302H80.9552V15.6106H72.8237V17.5339H78.887V20.2347H72.8237V24.818H70.1672V12.9302Z" fill="white"/>
<path d="M81.5024 12.9506H93.6493V15.631H88.9041V24.818H86.2271V15.631H81.5024V12.9506Z" fill="white"/>
<path d="M105.735 22.9355V12.9506H107.397V24.818H105.147L96.8729 14.8127V24.818H95.2104V12.9506H97.4616L105.735 22.9355Z" fill="white"/>
<path d="M111.96 12.9506H119.017C119.706 12.9506 120.291 13.1928 120.771 13.6769C121.251 14.1614 121.491 14.7443 121.491 15.4263V22.3423C121.491 23.0243 121.251 23.6075 120.771 24.0916C120.291 24.5761 119.706 24.818 119.017 24.818H111.96C111.284 24.818 110.706 24.5758 110.226 24.0916C109.746 23.6075 109.507 23.0246 109.507 22.3423V15.4263C109.507 14.7443 109.747 14.1611 110.226 13.6769C110.706 13.1928 111.284 12.9506 111.96 12.9506ZM111.96 23.1402H119.017C119.233 23.1402 119.419 23.0615 119.575 22.9048C119.73 22.748 119.808 22.5605 119.808 22.3423V15.4263C119.808 15.2084 119.73 15.0206 119.575 14.8635C119.419 14.7067 119.233 14.628 119.017 14.628H111.96C111.744 14.628 111.558 14.7067 111.403 14.8635C111.247 15.0206 111.17 15.2081 111.17 15.4263V22.3423C111.17 22.5605 111.247 22.7484 111.403 22.9048C111.558 23.0618 111.744 23.1402 111.96 23.1402Z" fill="white"/>
<path d="M134.286 12.9302V14.608H125.262V18.0456H131.975V19.7234H125.262V23.1406H134.286V24.818H123.6V12.9302H134.286Z" fill="white"/>
<path d="M148.42 15.4263V15.7945H146.737V15.4263C146.737 15.2084 146.659 15.0206 146.504 14.8635C146.348 14.7068 146.162 14.628 145.946 14.628H138.889C138.673 14.628 138.487 14.7068 138.332 14.8635C138.176 15.0206 138.099 15.2081 138.099 15.4263V17.2473C138.099 17.4655 138.176 17.6534 138.332 17.8101C138.487 17.9668 138.673 18.0456 138.889 18.0456H145.946C146.635 18.0456 147.22 18.2878 147.7 18.7719C148.18 19.2564 148.42 19.8393 148.42 20.5213V22.3426C148.42 23.0246 148.18 23.6079 147.7 24.092C147.22 24.5765 146.635 24.8184 145.946 24.8184H138.889C138.213 24.8184 137.635 24.5761 137.156 24.092C136.675 23.6079 136.436 23.025 136.436 22.3426V21.9744H138.098V22.3426C138.098 22.5609 138.176 22.7488 138.331 22.9051C138.487 23.0618 138.673 23.1406 138.889 23.1406H145.946C146.162 23.1406 146.348 23.0618 146.503 22.9051C146.659 22.7484 146.736 22.5609 146.736 22.3426V20.5213C146.736 20.3038 146.658 20.1156 146.503 19.9588C146.348 19.8021 146.162 19.7237 145.946 19.7237H138.889C138.213 19.7237 137.635 19.4815 137.155 18.9974C136.675 18.5132 136.435 17.9303 136.435 17.248V15.427C136.435 14.745 136.675 14.1618 137.155 13.6777C137.635 13.1935 138.213 12.9513 138.889 12.9513H145.946C146.635 12.9513 147.22 13.1935 147.7 13.6777C148.18 14.1614 148.42 14.7447 148.42 15.4263Z" fill="white"/>
<path d="M150.468 24.818V12.9506H152.13V24.818H150.468Z" fill="white"/>
<path d="M166.69 15.4263V15.7945H165.007V15.4263C165.007 15.2084 164.929 15.0206 164.774 14.8635C164.618 14.7068 164.432 14.628 164.216 14.628H157.16C156.943 14.628 156.757 14.7068 156.602 14.8635C156.447 15.0206 156.369 15.2081 156.369 15.4263V17.2473C156.369 17.4655 156.447 17.6534 156.602 17.8101C156.757 17.9668 156.943 18.0456 157.16 18.0456H164.216C164.906 18.0456 165.49 18.2878 165.97 18.7719C166.45 19.2564 166.69 19.8393 166.69 20.5213V22.3426C166.69 23.0246 166.45 23.6079 165.97 24.092C165.49 24.5765 164.906 24.8184 164.216 24.8184H157.16C156.484 24.8184 155.906 24.5761 155.426 24.092C154.946 23.6079 154.706 23.025 154.706 22.3426V21.9744H156.369V22.3426C156.369 22.5609 156.446 22.7488 156.602 22.9051C156.757 23.0618 156.943 23.1406 157.159 23.1406H164.216C164.432 23.1406 164.618 23.0618 164.774 22.9051C164.929 22.7484 165.007 22.5609 165.007 22.3426V20.5213C165.007 20.3038 164.929 20.1156 164.774 19.9588C164.618 19.8021 164.432 19.7237 164.216 19.7237H157.159C156.483 19.7237 155.905 19.4815 155.425 18.9974C154.945 18.5132 154.706 17.9303 154.706 17.248V15.427C154.706 14.745 154.946 14.1618 155.425 13.6777C155.905 13.1935 156.483 12.9513 157.159 12.9513H164.216C164.905 12.9513 165.49 13.1935 165.97 13.6777C166.45 14.1614 166.69 14.7447 166.69 15.4263Z" fill="white"/>
</svg>
